<svg width="276" height="276" viewBox="0 0 276 276" fill="none" xmlns="http://www.w3.org/2000/svg">
<g clip-path="url(#clip0_15_239)">
<path fill-rule="evenodd" clip-rule="evenodd" d="M147.66 260.214L148.116 274.912L143.25 275.064C138.17 275.223 135.44 272.229 135.308 267.956C135.174 263.685 137.714 260.526 142.793 260.367L147.661 260.214H147.66ZM120.696 259.385L131.093 260.373L129.716 275.012L119.511 274.044L119.704 272L127.516 272.743L127.906 268.593L121.64 267.999L121.826 266.017L128.092 266.613L128.509 262.187L120.505 261.427L120.696 259.385V259.385ZM154.964 259.277L156.843 273.861L154.46 274.173L152.58 259.589L154.964 259.277V259.277ZM166.177 257.16L174.553 270.344L172.085 270.902L165.351 259.801L165.268 259.821L163.865 272.759L161.499 273.294L163.479 257.77L166.177 257.161V257.16ZM145.322 262.34L142.964 262.415C139.074 262.535 137.727 265.038 137.814 267.879C137.903 270.721 139.403 273.131 143.292 273.009L145.651 272.936L145.322 262.34V262.34ZM110.935 257.204C115.227 258.177 117.342 261.965 116.385 266.238C115.424 270.513 111.897 273.019 107.605 272.045C103.394 271.091 101.177 267.281 102.135 263.008C103.094 258.734 106.725 256.25 110.935 257.204V257.204ZM104.562 263.559C103.875 266.622 105.232 269.317 108.072 269.961C110.893 270.6 113.264 268.772 113.956 265.688C114.648 262.602 113.288 259.927 110.468 259.289C107.626 258.643 105.249 260.493 104.562 263.557V263.559ZM191.502 248.213L197.251 261.733L195.042 262.681L192.602 256.943L185.837 259.849L188.277 265.587L186.048 266.545L180.3 253.027L182.529 252.067L185.035 257.964L191.8 255.058L189.294 249.163L191.502 248.215V248.213ZM82.9985 254.042L85.4952 255.183L84.4039 257.594L81.9072 256.454L82.9985 254.042ZM210.354 245.766C212.59 249.503 211.798 253.776 208.097 256.013C205.091 257.831 202.14 257.296 200.103 255.011L202.198 253.743C203.588 255.072 205.216 255.26 207.001 254.182C209.445 252.704 209.878 249.822 208.222 247.055C206.6 244.345 203.812 243.337 201.442 244.77C199.511 245.937 199.006 247.416 199.521 249.273L197.426 250.541C196.373 247.661 197.339 244.755 200.363 242.927C204.046 240.702 208.084 241.974 210.354 245.766ZM59.4414 232.051L61.8352 233.864L57.2672 245.145L57.3362 245.197L66.861 237.67L69.2563 239.482L63.5138 253.538L61.4762 251.996L66.4484 240.566L66.3808 240.515L56.587 248.294L54.4466 246.673L59.1456 235.039L59.0795 234.986L49.6068 243.012L47.6367 241.52L59.4414 232.051ZM213.872 233.856L221.617 243.857L225.575 240.757L226.814 242.361L216.984 250.053L215.745 248.451L219.72 245.34L211.975 235.339L213.872 233.856V233.856ZM227.904 221.008L234.182 235.374L232.153 237.352L218.06 230.606L219.876 228.837L223.249 230.521L227.737 226.144L226.165 222.705L227.904 221.008V221.008ZM46.192 219.164L47.9719 220.97L46.3328 224.377L50.7333 228.841L54.1368 227.224L55.8435 228.954L41.6211 235.418L39.6327 233.398L46.192 219.164V219.164ZM228.61 228.092L225.144 231.471L231.502 234.651L231.563 234.592L228.61 228.092V228.092ZM45.4076 226.293L42.3111 232.716L42.3716 232.777L48.8041 229.738L45.4076 226.293V226.293ZM238.519 207.645L252.446 213.572L250.888 215.603L239.567 210.479L239.516 210.547L247.151 220.48L245.516 222.613L233.986 217.76L233.934 217.828L241.815 227.438L240.31 229.403L231.018 217.43L232.848 215.044L244.025 219.76L244.077 219.692L236.69 210.032L238.52 207.645H238.519ZM41.4169 213.099L42.9123 214.99L33.0439 222.878L36.1672 226.827L34.5859 228.089L26.8297 218.286L28.4111 217.024L31.5471 220.987L41.4169 213.099V213.099ZM33.7466 201.52C35.9997 205.195 34.776 209.266 31.0289 211.589C27.3352 213.875 23.0784 213.122 20.8126 209.429C18.9736 206.427 19.4749 203.456 21.7251 201.384L23.0094 203.476C21.6998 204.887 21.5308 206.524 22.6235 208.308C24.1176 210.745 26.9888 211.153 29.7235 209.459C32.4018 207.8 33.3763 204.989 31.9259 202.622C30.743 200.693 29.2686 200.202 27.4254 200.74L26.1439 198.648C28.9969 197.558 31.8963 198.499 33.748 201.52H33.7466ZM23.4698 181.452L24.4471 183.682L18.6117 186.266L21.5773 193.032L27.4127 190.447L28.3815 192.656L14.9969 198.584L14.0281 196.376L19.7086 193.858L16.743 187.093L11.0625 189.609L10.0852 187.38L23.4698 181.452V181.452ZM254.338 191.469L256.726 192.594L255.563 195.092L253.174 193.969L254.337 191.469H254.338ZM3.10216 162.786L18.5666 164.602L19.2017 167.307L6.1804 175.871L5.59883 173.396L16.567 166.506L16.5473 166.422L3.6612 165.157L3.10216 162.786V162.786ZM265.654 160.567C269.894 161.579 272.351 165.151 271.335 169.456C270.339 173.676 266.523 175.862 262.283 174.851C258.043 173.839 255.611 170.165 256.608 165.943C257.623 161.64 261.414 159.556 265.654 160.567ZM258.677 166.437C258.004 169.284 259.817 171.693 262.858 172.419C265.898 173.143 268.594 171.811 269.266 168.962C269.934 166.135 268.142 163.73 265.081 163C262.018 162.271 259.343 163.609 258.677 166.437V166.437ZM16.6416 153.661L16.9754 156.053L2.48538 158.1L2.14883 155.708L16.6416 153.661ZM259.982 145.697L274.528 147.23L273.461 157.474L271.431 157.261L272.247 149.418L268.126 148.983L267.468 155.273L265.502 155.067L266.158 148.775L261.761 148.313L260.923 156.346L258.894 156.132L259.982 145.697V145.697ZM15.7573 143.864L15.9657 148.753L1.35322 149.378L1.14481 144.49C0.929361 139.387 3.87665 136.61 8.12226 136.428C12.3707 136.245 15.5419 138.761 15.7573 143.864V143.864ZM8.23069 138.947C5.40591 139.067 3.0233 140.603 3.18946 144.509L3.28944 146.879L13.8239 146.427L13.7239 144.058C13.5578 140.151 11.0541 138.825 8.23069 138.947V138.947ZM274.63 128.756L274.731 133.651C274.838 138.76 271.83 141.475 267.578 141.564C263.325 141.655 260.207 139.067 260.1 133.959L259.998 129.065L274.628 128.756H274.63ZM272.639 131.215L262.092 131.437L262.139 133.81C262.221 137.721 264.697 139.101 267.526 139.042C270.353 138.984 272.768 137.499 272.688 133.587L272.639 131.215V131.215ZM1.90803 120.599L3.94283 120.769L3.28803 128.624L7.41959 128.973L7.94342 122.67L9.91485 122.836L9.38961 129.138L13.7972 129.508L14.466 121.46L16.4994 121.63L15.6292 132.085L1.05469 130.861L1.90803 120.599V120.599ZM273.674 119.984L273.957 122.381L259.429 124.111L259.147 121.712L273.674 119.984ZM12.6903 103.003C16.9529 103.92 19.465 107.541 18.5624 111.784C17.6429 116.11 13.8971 118.278 9.63463 117.361C5.37212 116.444 2.83742 112.926 3.75836 108.6C4.65959 104.358 8.42783 102.086 12.6903 103.003ZM270.367 102.15L270.894 104.637L259.784 111.279L259.799 111.364L272.65 112.912L273.155 115.296L257.74 113.137L257.164 110.42L270.367 102.148V102.15ZM5.83681 109.048C5.23271 111.89 7.0774 114.254 10.1542 114.917C13.2325 115.577 15.8784 114.179 16.4839 111.337C17.0923 108.474 15.2264 106.106 12.1707 105.449C9.11361 104.791 6.44654 106.185 5.83681 109.048V109.048ZM262.054 79.2403L262.973 81.4724L257.236 83.8615L260.053 90.6922L265.789 88.3044L266.719 90.5549L253.202 96.1825L252.275 93.932L258.167 91.4777L255.351 84.6457L249.458 87.0999L248.538 84.8693L262.054 79.2417V79.2403ZM19.0102 82.582L21.4224 83.6535L20.3155 86.1757L17.9034 85.1057L19.0102 82.5834V82.582ZM256.487 68.2881C258.261 71.3311 257.697 74.2907 255.4 76.3147L254.164 74.193C255.501 72.8102 255.707 71.1783 254.652 69.3708C253.21 66.8982 250.347 66.4311 247.576 68.0644C244.861 69.6638 243.828 72.4564 245.227 74.8526C246.368 76.8073 247.833 77.331 249.686 76.8342L250.925 78.9544C248.047 79.9806 245.168 78.977 243.381 75.9156C241.208 72.1917 242.52 68.1451 246.317 65.906C250.062 63.7008 254.302 64.5458 256.487 68.2881V68.2881ZM33.4861 47.9929L43.0292 59.7604L41.2493 62.1863L29.9784 57.7137L29.9277 57.7817L37.5163 67.2789L35.7377 69.7049L21.6913 64.0787L23.2051 62.0151L34.6309 66.8939L34.6802 66.8231L26.8382 57.0584L28.4294 54.8929L40.0538 59.4957L40.1045 59.4249L32.0216 49.9886L33.4861 47.9929V47.9929ZM243.105 49.3106L250.656 59.2806L249.048 60.5119L245.995 56.4781L235.957 64.158L234.501 62.2359L244.539 54.556L241.499 50.542L243.105 49.3106ZM236.231 41.8345L238.178 43.8953L231.313 57.9897L229.571 56.1455L231.282 52.7726L226.979 48.2151L223.539 49.7578L221.869 47.99L236.231 41.8331V41.8345ZM41.4704 39.8601L55.7027 46.2986L53.9242 48.1075L50.5164 46.4968L46.1244 50.9694L47.7705 54.372L46.0666 56.1058L39.4821 41.8826L41.4704 39.8601V39.8601ZM235.427 44.4601L228.928 47.3574L232.251 50.8774L235.484 44.5209L235.427 44.4586V44.4601ZM42.1773 42.5436L42.1181 42.6045L45.2105 49.0374L48.6027 45.5867L42.1773 42.5436ZM214.734 23.2477L216.739 24.8329L211.52 36.1518L211.588 36.2041L221.546 28.6417L223.652 30.3076L218.7 41.8359L218.767 41.8897L228.41 34.0768L230.346 35.6097L218.34 44.8167L215.985 42.9513L220.797 31.774L220.731 31.7216L211.044 39.0377L208.691 37.1737L214.735 23.2477H214.734ZM56.3547 26.83L57.6305 28.4054L53.7228 31.6027L61.6832 41.434L59.8187 42.9583L51.857 33.1271L47.9648 36.3117L46.6904 34.7364L56.3547 26.8286V26.83ZM73.1386 21.5039L71.07 22.816C69.6505 21.5181 68.0213 21.3638 66.2583 22.4834C63.8503 24.012 63.4772 26.9036 65.1923 29.6325C66.8722 32.3076 69.6815 33.2559 72.0191 31.7711C73.9257 30.5624 74.3989 29.0734 73.8426 27.2263L75.9084 25.9143C77.0251 28.7705 76.1211 31.6961 73.1372 33.5899C69.5041 35.897 65.4387 34.7109 63.0871 30.9686C60.7721 27.2815 61.4719 22.9943 65.1233 20.6774C68.0903 18.7935 71.0517 19.2634 73.1386 21.5039V21.5039ZM86.9315 9.66141L92.9768 23.0495L90.7702 24.0545L88.1341 18.2174L81.4355 21.2732L84.0715 27.1117L81.8847 28.1095L75.838 14.7214L78.0249 13.7236L80.592 19.4049L87.2906 16.3477L84.7235 10.6678L86.9315 9.66141V9.66141ZM192.483 17.2804L194.955 18.4764L193.811 20.8628L191.34 19.6696L192.483 17.2804ZM111.321 2.37785L109.686 17.9414L107.002 18.6109L98.3362 5.61766L100.792 5.0048L107.768 15.9514L107.853 15.9316L108.968 2.96381L111.32 2.37785H111.321ZM165.231 2.44578C169.463 3.30634 171.765 7.06843 170.9 11.3627C170.036 15.6598 166.46 18.2259 162.227 17.3654C157.911 16.4878 155.715 12.747 156.578 8.45126C157.442 4.15557 160.915 1.56825 165.231 2.44578V2.44578ZM118.334 1.35311L120.529 15.8891L118.155 16.2514L115.958 1.71403L118.334 1.35311V1.35311ZM143.052 -0.0297241L153.276 0.717599L153.129 2.76425L145.301 2.19243L145.001 6.34941L151.28 6.80941L151.137 8.79095L144.858 8.33237L144.538 12.7682L152.556 13.3513L152.408 15.3994L141.992 14.6393L143.052 -0.0297241V-0.0297241ZM159.018 8.94665C158.394 12.0478 159.815 14.6931 162.65 15.2692C165.506 15.8495 167.842 13.9472 168.463 10.8673C169.082 7.78603 167.666 5.12086 164.81 4.54055C161.974 3.96308 159.642 5.84554 159.018 8.94665V8.94665ZM137.62 7.14345C137.845 11.4137 135.372 14.6266 130.295 14.8969L125.432 15.1545L124.662 0.468491L129.523 0.209476C134.601 -0.0594472 137.394 2.87464 137.62 7.14486V7.14345ZM129.527 2.26461L127.168 2.38917L127.726 12.9791L130.083 12.8531C133.97 12.6465 135.265 10.1158 135.115 7.27649C134.965 4.43864 133.414 2.05797 129.527 2.26461Z" fill="#EA4809"/>
</g>
<path d="M218.721 116.025L101.207 45.7647C95.0037 42.0427 87.2454 40.0068 79.2391 40C59.7332 40 43.9199 51.9041 43.9199 66.5926V207.102C43.9199 213.108 46.6169 218.936 51.5796 223.64C63.7159 235.141 85.9345 237.061 101.207 227.924L218.728 157.669C220.841 156.406 222.751 154.968 224.42 153.386C236.549 141.885 234.001 125.156 218.721 116.025ZM202.641 140.364C202.284 140.7 201.877 141.006 201.426 141.274L83.9118 211.529C83.1441 211.99 82.2581 212.333 81.3066 212.537C80.3551 212.741 79.3574 212.803 78.3729 212.718C77.3885 212.633 76.4373 212.403 75.5759 212.042C74.7146 211.682 73.9607 211.197 73.3591 210.618C72.3034 209.61 71.7325 208.374 71.7362 207.102V66.5926C71.7153 65.1125 72.4933 63.6867 73.8998 62.6277C75.3062 61.5687 77.2263 60.9629 79.2391 60.9432C80.9404 60.9432 82.5868 61.3698 83.9118 62.1653L201.433 132.42C202.997 133.37 203.997 134.73 204.223 136.212C204.448 137.694 203.881 139.183 202.641 140.364V140.364Z" fill="#EA4809"/>
<defs>
<clipPath id="clip0_15_239">
<rect width="276" height="276" fill="white"/>
</clipPath>
</defs>
</svg>
